<svg width="128" height="128" viewBox="0 0 128 128" fill="none" xmlns="http://www.w3.org/2000/svg">
<rect x="33" y="22" width="24.073" height="84.7787" rx="12.0365" fill="#01C0C0"/>
<path d="M83.2393 22C90.1758 22 95.7997 27.6231 95.7998 34.5596V45.5898C95.8246 46.2105 96.028 53.9075 91.0889 58.6328C88.2521 61.3467 83.2393 64.9131 83.2393 64.9131C83.2677 64.9311 88.2848 68.1181 91.0889 70.6689C96.3315 75.4384 95.8317 83.7942 95.7998 84.2559V94.2188C95.7998 101.155 90.1759 106.778 83.2393 106.778H71.7266V82.2588C71.5868 79.3905 70.7892 74.1011 67.0166 70.6689C64.2125 68.1181 59.1954 64.9311 59.167 64.9131C59.167 64.9131 64.1799 61.3467 67.0166 58.6328C71.0731 54.7519 71.6596 48.8663 71.7266 46.543V22H83.2393ZM95.7998 82.2842C95.7994 82.2757 95.7992 82.2673 95.7988 82.2588V46.543C95.7991 46.5331 95.7995 46.5234 95.7998 46.5137V82.2842Z" fill="#01C0C0"/>
</svg>
